<svg id="Livello_1" xmlns="http://www.w3.org/2000/svg" viewBox="0 0 375 82"><style>.st0{display:none}.st1{display:inline;fill:#00dc66}.st2{fill:none;stroke:#fff;stroke-width:2;stroke-miterlimit:10}</style><g class="st0"><path class="st1" d="M187.5 2c21.5 0 39 17.5 39 39s-17.5 39-39 39-39-17.5-39-39 17.5-39 39-39m0-1c-22.1 0-40 17.9-40 40s17.9 40 40 40 40-17.9 40-40-17.9-40-40-40z"/></g><path class="st2" d="M375 81c-87.7 0-147.3 2.3-147-40.5.2-19.3-14.6-39.5-40.5-39.5S146.8 21.2 147 40.5C147.3 83.3 87.7 81 0 81"/></svg>