<svg xmlns="http://www.w3.org/2000/svg" width="24" height="2700" viewBox="0 0 24 2700"><defs><clipPath id="a"><path d="M0 0h24v2700H0z"/></clipPath><clipPath id="b"><path d="M0 0h53v2700H0z"/></clipPath><clipPath id="c"><path d="M0 0h53v2700H0z" transform="translate(5.6)"/></clipPath><clipPath id="d"><path fill="none" d="M0 0h23.723v23.723H0z"/></clipPath></defs><g clip-path="url(#a)"><g clip-path="url(#b)"><g transform="translate(-5.6)" clip-path="url(#c)"><path d="M19.6 1391a13.19 13.19 0 0 1-9.2-3.8 13.013 13.013 0 0 1-3.8-9.2 13.19 13.19 0 0 1 3.8-9.2 13.011 13.011 0 1 1 18.4 18.4 13.373 13.373 0 0 1-9.2 3.8zm-4.4-18.7v11.9l10.3-6.1-10.3-5.8z" fill="#fff"/><path d="M13.9 0a8.3 8.3 0 1 0 0 16.6 7.968 7.968 0 0 0 4.7-1.5l4.5 4.5a1.335 1.335 0 0 0 2 0 1.45 1.45 0 0 0 0-2.1L20.7 13a7.968 7.968 0 0 0 1.5-4.7A8.28 8.28 0 0 0 13.9 0zm0 2.9a5.464 5.464 0 0 1 5.4 5.4 5.4 5.4 0 1 1-10.8 0 5.464 5.464 0 0 1 5.4-5.4z" fill="#ffe200"/><path d="M7.1 36.5l8 8 8-8" fill="none" stroke="#fff" stroke-width="2"/><path d="M8.1 66.5l8 8 8-8" fill="none" stroke="#29a4e5" stroke-width="2"/><path d="M16.7 102.6V94h8.6v8.6z" fill="none"/><g transform="translate(2 167)" fill="none" stroke="#000" stroke-linecap="square" stroke-miterlimit="10"><path d="M13.1 7.5v3.3h3.3"/><circle cx="7.5" cy="7.5" r="7.5" transform="translate(5.6 3.3)"/><path d="M10.6 0h5"/></g><path d="M15.1 167v.8" fill="none" stroke="#000" stroke-linecap="square" stroke-miterlimit="10"/><path d="M15.6 221.3c-3.2 0-5.7-1.3-5.7-3v-5.7a.43.43 0 0 1 .4-.4h10.4a.43.43 0 0 1 .4.4v5.7c.1 1.6-2.3 3-5.5 3zm8.7-3.5a.43.43 0 0 1-.4-.4v-6.5a.4.4 0 0 1 .8 0v6.5a.43.43 0 0 1-.4.4z" fill="#444"/><path d="M15.6 216c-.1 0-.1 0-.2-.1l-9.6-5.2a.481.481 0 0 1-.2-.6c0-.1.1-.1.2-.2l9.6-5.2a.3.3 0 0 1 .4 0l9.6 5.2a.481.481 0 0 1 .2.6c0 .1-.1.1-.2.2l-9.6 5.2c-.1.1-.1.1-.2.1z" fill="#5b5b5b"/><path d="M19.4 246.9l-6.8 6.5-1.3-1.2 5.6-5.3-5.6-5.3 1.3-1.2z" fill="#fff"/><path d="M11.1 272.5v22.2h9.8" fill="none" stroke="#9b9b9b"/><path d="M11.5 323.7v1.2c0 1.8-2 2-2 2h12.3a2.006 2.006 0 0 0 2-2v-1.2z" fill="none" stroke="#9b9b9b" stroke-linecap="square" stroke-miterlimit="10"/><path d="M21.3 321.3V309H7.4v16a2.006 2.006 0 0 0 2 2h1.2m.9-13.9h5.7m-5.7 3.3h5.7m-5.7 3.2h5.7m-5.1 23.2h7v4.4h-7z" fill="none" stroke="#9b9b9b" stroke-linecap="square" stroke-miterlimit="10"/><path d="M23.4 353.2v-14.8h-14a1.685 1.685 0 0 0-1.7 1.7v15.3" fill="none" stroke="#9b9b9b" stroke-miterlimit="10"/><path d="M9.9 353.2h13.5v4.4H9.9a2.22 2.22 0 0 1-2.2-2.2 2.22 2.22 0 0 1 2.2-2.2z" fill="none" stroke="#9b9b9b" stroke-linecap="square" stroke-miterlimit="10"/><path d="M9.3 399.4h14.9v15.1H9.3l-3.1-2.9v-9.7z" fill="none"/><path d="M9.6 400.4l-2.5 1.9v8.8l2.5 2.3h13.5v-13.1H9.6m-.3-.9h14.9v15.1H9.3l-3.1-2.9v-9.7z" fill="#9b9b9b"/><path d="M9.7 399.8V414m-1.6-13v11.7" fill="none" stroke="#9b9b9b"/><path d="M7.6 373.4l5.7-1.4 4.3 1.4 5.7-1.4v12.8l-5.7 1.4-4.3-1.4-5.7 1.4v-12.8zm10 4.3l2.8 2.8m0-2.8l-2.8 2.8m-7.2-1.4h.7m2.9 0h.7" fill="none" stroke="#9b9b9b" stroke-linecap="square" stroke-miterlimit="10"/><path d="M16.1 1500.5v-13" fill="none" stroke="#9b9b9b"/><path d="M7.6 429h16v17.6h-16zm10.4 4h1.6m-1.6 3.2h1.6m-8 3.2h8m-8 3.2h8" fill="none" stroke="#9b9b9b" stroke-linecap="square" stroke-miterlimit="10"/><path d="M11.6 433h3.2v3.2h-3.2z" fill="none" stroke="#9b9b9b" stroke-linecap="square" stroke-miterlimit="10"/><path d="M12.1 463.8h7v4.4h-7z" fill="none" stroke="#29a4e5" stroke-linecap="square" stroke-miterlimit="10"/><path d="M23.4 474.2v-14.8h-14a1.685 1.685 0 0 0-1.7 1.7v15.3" fill="none" stroke="#29a4e5" stroke-miterlimit="10"/><path d="M9.9 474.2h13.5v4.4H9.9a2.22 2.22 0 0 1-2.2-2.2 2.22 2.22 0 0 1 2.2-2.2z" fill="none" stroke="#29a4e5" stroke-linecap="square" stroke-miterlimit="10"/><g transform="translate(2 491)" fill="none" stroke="#29a4e5" stroke-linecap="square" stroke-miterlimit="10"><path d="M13.1 7.5v3.3h3.3"/><circle cx="7.5" cy="7.5" r="7.5" transform="translate(5.6 3.3)"/><path d="M10.6 0h5"/></g><path d="M15.1 491v.8" fill="none" stroke="#29a4e5" stroke-linecap="square" stroke-miterlimit="10"/><path d="M14.6 678a2.946 2.946 0 0 1 3-3 1 1 0 0 0 0-2 4.794 4.794 0 0 0-4 2 4.794 4.794 0 0 0-4-2 1 1 0 1 0 0 2 2.946 2.946 0 0 1 3 3v11h-3a1 1 0 0 0 0 2h3v1a2.946 2.946 0 0 1-3 3 1 1 0 0 0 0 2 4.794 4.794 0 0 0 4-2 4.794 4.794 0 0 0 4 2 1 1 0 0 0 0-2 2.946 2.946 0 0 1-3-3v-1h3a1 1 0 0 0 0-2h-3z"/><path d="M11.2 936.9l6.8-6.5 1.3 1.2-5.6 5.3 5.6 5.3-1.3 1.2z" fill="#fff"/><path d="M8.5 1250.3v18l15.7-9.3z" fill="none" stroke="#9b9b9b"/><path d="M19.1 1290.5l-8 8 8 8m-8 39l8-8-8-8" fill="none" stroke="#9b9b9b" stroke-width="2"/><path d="M8.3 749l15 15m0-15l-15 15" fill="none" stroke="#fff" stroke-width="3"/><text transform="translate(11.949 611)" fill="#f15151" font-size="15" font-family="SFUIText-Medium, SF UI Text" font-weight="500"><tspan x="0" y="0">-</tspan></text><path d="M5.6 714h20m-20 15h20m-20-7.5h20" stroke="#fff" stroke-width="2"/><path d="M15.3 783.9v11.3m5.6-5.6H9.6m11.3 31H9.6" fill="none" stroke="#fff" stroke-width="3"/><path d="M13.6 848l2-2-2-2" fill="none" stroke="#8e8e8e" stroke-width="2"/><path d="M24 873.1v11.5H5.9v-11.5m0-4.9H24v4.9H5.9zm9.1-1.6v3.3m-5-3.3v3.3m9.9-3.3v3.3" fill="none" stroke="#8e8e8e" stroke-linecap="square" stroke-miterlimit="10"/><path d="M9.2 876.4h1.6v.8H9.2zm4.9 0h1.6v.8h-1.6zm-4.9 4.1h1.6v.8H9.2zm4.9 0h1.6v.8h-1.6zm5-4.1h1.6v.8h-1.6z" stroke="#8e8e8e" stroke-linecap="square" stroke-miterlimit="10"/><path d="M7.6 902h15.7v2H7.6zm0 4h15.7v2H7.6zm0 4h15.7v2H7.6z" opacity=".301"/><path d="M20.1 967.9v5.5H7.6v-10.9h3.9" fill="none" stroke="#262626" stroke-linecap="square" stroke-miterlimit="10" stroke-width="2"/><path d="M13.8 967.9a7.81 7.81 0 0 1 7.8-7.8H24" fill="none" stroke="#262626" stroke-miterlimit="10" stroke-width="2"/><path d="M20.9 963.3l3.1-3.1-3.1-3.1" fill="none" stroke="#262626" stroke-linecap="square" stroke-miterlimit="10" stroke-width="2"/><path d="M17.6 1216v13" fill="none" stroke="#000" stroke-miterlimit="10" stroke-width="2"/><path d="M20.6 1226l-3 3-3-3m8-3h2a4 4 0 0 0 0-8 7.513 7.513 0 0 0-15 .1 3.957 3.957 0 0 0 1 7.8h2" fill="none" stroke="#000" stroke-linecap="square" stroke-miterlimit="10" stroke-width="2"/><path d="M17.4 1413.9l-6.8 6.5-1.3-1.2 5.6-5.3-5.6-5.3 1.3-1.2z"/><path d="M26.9 1441.6l-10.8 10.8" fill="none" stroke="#000" stroke-miterlimit="10" stroke-width="1.5"/><path d="M26.9 1441.6l-6.5 18.7-4.3-7.9-7.9-4.3z" fill="none" stroke="#000" stroke-linecap="square" stroke-miterlimit="10" stroke-width="1.5"/><path d="M8.3 1524l15 15m0-15l-15 15" fill="none" stroke="#000" stroke-width="3"/><path d="M7.6 1571h22v18h-22z" fill="none" stroke="#fff" stroke-linecap="square" stroke-miterlimit="10" stroke-width="2"/><path d="M11.6 1581v4h4m6-10h4v4" fill="none" stroke="#fff" stroke-linecap="square" stroke-miterlimit="10" stroke-width="2"/><path d="M25 1795.6a2.175 2.175 0 0 0-3 0l-1.5 1.5 3 3 1.5-1.5a2.174 2.174 0 0 0 0-3zm-6.8 2L6.8 1809l-1.2 6 6-1.2 10.1-10.1 1 1-5.3 5.3 1.2 1.2 6.5-6.5z" fill="#171a29"/><path d="M5.6 1856.6h17.2m-6.6-6.6l6.5 6.5-6.5 6.5m7.6 41.5H6.6m6.6 6.6l-6.5-6.5 6.5-6.5" fill="none" stroke="#29a4e5" stroke-width="2"/><text transform="translate(10.949 574)" fill="#3cb46e" font-size="15" font-family="SFUIText-Medium, SF UI Text" font-weight="500"><tspan x="0" y="0">+</tspan></text><path d="M11.262 1958.857l-3.329-3.329a1.073 1.073 0 0 1 0-1.553l3.329-3.329.022 1.526-2.553 2.553 2.552 2.552zm1.932 2.373l4.406-13.138c.222-.555 1.319-.331 1.1.335l-4.442 13.316c-.222.444-1.286.153-1.064-.513zm7.744-10.583l3.329 3.329a1.073 1.073 0 0 1 0 1.553l-3.329 3.329-.022-1.526 2.553-2.553-2.552-2.552z" fill="#9b9b9b"/><path d="M9.1 2013.5l8-8-8-8m8 55l-8 8 8 8" fill="none" stroke="#29a4e5" stroke-width="2"/><path d="M7.5 2109.3v8l6.978-4.133z" fill="#fff"/><path d="M27.934 117.3a.971.971 0 0 0 .971-.971V94.971a.971.971 0 0 0-.971-.971H6.571a.971.971 0 0 0-.971.971v21.363a.971.971 0 0 0 .971.971z" fill="#6E96CB"/><path d="M17.99 117.305v-9.225h-3.165v-3.4h3.165v-2.51c0-3.01 1.838-4.649 4.524-4.649a24.919 24.919 0 0 1 2.711.139v3.146h-1.86c-1.46 0-1.743.694-1.743 1.712v2.164h3.4l-.486 3.4h-2.911v9.225z" fill="#fff"/><g transform="translate(5.441 131)"><path d="M11.652 0c-3.165 0-3.561.014-4.8.07a6.963 6.963 0 0 0-4.9 1.886A6.963 6.963 0 0 0 .07 6.848C.014 8.091 0 8.488 0 11.652s.014 3.561.07 4.8a6.963 6.963 0 0 0 1.886 4.893 6.963 6.963 0 0 0 4.893 1.886c1.243.056 1.64.07 4.8.07s3.561-.014 4.8-.07a6.964 6.964 0 0 0 4.893-1.886 6.963 6.963 0 0 0 1.886-4.893c.056-1.243.07-1.64.07-4.8s-.014-3.561-.07-4.8a6.963 6.963 0 0 0-1.886-4.893A6.963 6.963 0 0 0 16.457.07C15.214.014 14.817 0 11.652 0z" fill="#6E96CB"/><path d="M11.652 5.284c2.074 0 2.32.008 3.139.045a3.328 3.328 0 0 1 2.336.849 3.328 3.328 0 0 1 .849 2.336c.037.819.045 1.065.045 3.139s-.008 2.32-.045 3.139a3.328 3.328 0 0 1-.849 2.336 3.328 3.328 0 0 1-2.336.849c-.819.037-1.065.045-3.139.045s-2.32-.008-3.139-.045a3.328 3.328 0 0 1-2.336-.849 3.328 3.328 0 0 1-.849-2.336c-.037-.819-.045-1.065-.045-3.139s.008-2.32.045-3.139a3.328 3.328 0 0 1 .849-2.336 3.328 3.328 0 0 1 2.336-.849c.819-.037 1.065-.045 3.139-.045m0-1.4c-2.11 0-2.374.009-3.2.047a4.645 4.645 0 0 0-3.268 1.253 4.643 4.643 0 0 0-1.257 3.262c-.038.829-.047 1.093-.047 3.2s.009 2.374.047 3.2a4.645 4.645 0 0 0 1.257 3.271 4.643 4.643 0 0 0 3.262 1.257c.829.038 1.093.047 3.2.047s2.374-.009 3.2-.047a4.645 4.645 0 0 0 3.262-1.257 4.643 4.643 0 0 0 1.257-3.262c.038-.829.047-1.093.047-3.2s-.009-2.374-.047-3.2a4.645 4.645 0 0 0-1.248-3.271 4.643 4.643 0 0 0-3.262-1.257c-.829-.034-1.093-.043-3.203-.043z" fill="#fff"/><path d="M11.652 7.663a3.989 3.989 0 1 0 3.989 3.989 3.989 3.989 0 0 0-3.989-3.989zm0 6.578a2.589 2.589 0 1 1 2.589-2.589 2.589 2.589 0 0 1-2.589 2.589z" fill="#fff"/><circle cx=".932" cy=".932" r=".932" transform="translate(14.867 6.573)" fill="#fff"/></g><path d="M14.15 1124.193l-8.3-8.683 1.532-1.66 6.768 7.151 6.768-7.151 1.532 1.66z"/><path d="M14.15 1167.193l-8.3-8.683 1.532-1.66 6.768 7.151 6.768-7.151 1.532 1.66z" fill="#fff"/><path d="M9.3 1697.9l6.8-6.5 1.3 1.2-5.6 5.3 5.6 5.3-1.3 1.2z"/></g></g><g transform="translate(.277 1629)" clip-path="url(#d)" fill="none" stroke="#fff" stroke-linecap="round" stroke-width="2"><path d="M11.861.673A11.188 11.188 0 1 1 .673 11.861 11.188 11.188 0 0 1 11.861.673z"/><g transform="translate(3.794 5.148)" stroke-linejoin="round"><circle cx="5.221" cy="5.221" r="5.221" transform="translate(2.846)"/><path d="M5.83 9.938a2.893 2.893 0 0 1-2.036 2.676L.408 14.237a2.89 2.89 0 0 0-.412.213m16.139.003a2.89 2.89 0 0 0-.412-.213l-3.379-1.623c-1.238-.654-2.038-1.393-2.038-2.677"/></g></g><path d="M14.225 1013.948l-2.586 2.586-7.759-7.759 2.586-2.586-3.88-3.88L0 1004.895a15.519 15.519 0 0 0 15.519 15.514l2.581-2.581zm-3.76 44.197a1.7 1.7 0 0 0-1.453.721 3.349 3.349 0 0 0-.527 2.01 3.383 3.383 0 0 0 .521 2 1.682 1.682 0 0 0 1.447.727 1.777 1.777 0 0 0 1.5-.732 3.253 3.253 0 0 0 .551-2 3.253 3.253 0 0 0-.551-2 1.765 1.765 0 0 0-1.488-.726zm.387-7.125a10.747 10.747 0 0 1 4.9 1.084 8.069 8.069 0 0 1 3.352 3.07 8.623 8.623 0 0 1 1.2 4.553 7.2 7.2 0 0 1-1.232 4.423 3.988 3.988 0 0 1-3.372 1.65 3.361 3.361 0 0 1-1.869-.5 2.1 2.1 0 0 1-.955-1.342h-.164a2.78 2.78 0 0 1-2.824 1.8 3.624 3.624 0 0 1-2.945-1.358 5.486 5.486 0 0 1-1.119-3.6 5.269 5.269 0 0 1 1.1-3.463 3.522 3.522 0 0 1 2.854-1.33 3.233 3.233 0 0 1 1.693.445 2.622 2.622 0 0 1 1.084 1.219h.164v-1.4H15.1v6.27a1.5 1.5 0 0 0 .287.973 1 1 0 0 0 .826.352 1.6 1.6 0 0 0 1.406-1.066 6.537 6.537 0 0 0 .533-2.9 6.7 6.7 0 0 0-2.021-5.1 7.473 7.473 0 0 0-5.361-1.916 7.349 7.349 0 0 0-5.532 2.216 7.929 7.929 0 0 0-2.144 5.752 7.481 7.481 0 0 0 2.221 5.73 8.268 8.268 0 0 0 5.9 2.086 9.678 9.678 0 0 0 3.2-.41v1.875a11.915 11.915 0 0 1-3.375.434 11.818 11.818 0 0 1-4.078-.68 9.282 9.282 0 0 1-3.2-1.928 8.536 8.536 0 0 1-2.08-3.088 10.783 10.783 0 0 1-.744-4.078 10.208 10.208 0 0 1 1.254-5.1 8.727 8.727 0 0 1 3.508-3.449 10.621 10.621 0 0 1 5.152-1.224z" fill="#fff"/><path d="M11.8 641.9L5 648.4l-1.3-1.2 5.6-5.3-5.6-5.3 1.3-1.2z" fill="#ffe200"/><g transform="translate(-1 2153)" fill="none" stroke="#444" stroke-linecap="square" stroke-miterlimit="10" stroke-width="2"><path d="M3.927 22.79h17.345a1.927 1.927 0 0 0 1.928-1.927V9.3a1.927 1.927 0 0 0-1.927-1.927H17.9L15.972 4h-5.781L8.263 7.373H3.927A1.927 1.927 0 0 0 2 9.3v11.563a1.927 1.927 0 0 0 1.927 1.927z"/><circle cx="4.818" cy="4.818" r="4.818" transform="translate(8.263 10.263)"/><circle cx=".482" cy=".482" r=".482" transform="translate(4.891 10.263)"/></g></g></svg>
