<?xml version="1.0" encoding="utf-8"?>
<!-- Generator: Adobe Illustrator 22.1.0, SVG Export Plug-In . SVG Version: 6.00 Build 0)  -->
<svg version="1.1" id="Livello_1" xmlns="http://www.w3.org/2000/svg" xmlns:xlink="http://www.w3.org/1999/xlink" x="0px" y="0px"
	 viewBox="0 0 42 42" style="enable-background:new 0 0 42 42;" xml:space="preserve">
<style type="text/css">
	.st0{fill:#FFFFFF;}
	.st1{fill:none;stroke:#FFFFFF;stroke-width:2;stroke-linecap:round;stroke-linejoin:round;}
</style>
<g transform="translate(.277 1629)">
	<g>
		<path class="st0" d="M20.7-1627c10.5,0,19,8.5,19,19s-8.5,19-19,19s-19-8.5-19-19S10.2-1627,20.7-1627 M20.7-1629
			c-11.6,0-21,9.4-21,21s9.4,21,21,21s21-9.4,21-21S32.3-1629,20.7-1629L20.7-1629z"/>
	</g>
	<g transform="translate(3.794 5.148)">
		<g>
			<path class="st0" d="M16.9-1624.5c4,0,7.3,3.3,7.3,7.3s-3.3,7.3-7.3,7.3s-7.3-3.3-7.3-7.3S12.8-1624.5,16.9-1624.5 M16.9-1626.5
				c-5.2,0-9.3,4.2-9.3,9.3c0,5.1,4.2,9.3,9.3,9.3s9.3-4.2,9.3-9.3C26.2-1622.3,22-1626.5,16.9-1626.5L16.9-1626.5z"/>
		</g>
		<path class="st1" d="M12.9-1608.7c-0.1,2.2-1.5,4.1-3.6,4.8l-6.1,2.9c-0.3,0.1-0.5,0.2-0.7,0.4 M31.3-1600.6
			c-0.2-0.1-0.5-0.3-0.7-0.4l-6-2.9c-2.2-1.2-3.6-2.5-3.6-4.8"/>
	</g>
</g>
</svg>
