<svg version="1" xmlns="http://www.w3.org/2000/svg" width="1440" height="1440" viewBox="0 0 1080.000000 1080.000000"><path d="M491.9 211.4c-.2.2-4.2.7-8.9 1-4.7.4-11.2 1.1-14.5 1.6-3.3.5-8 1.2-10.4 1.5-2.4.3-6.3 1-8.5 1.5-2.3.5-5.7 1.2-7.6 1.5-3.4.6-17.3 3.7-21.5 4.9-.5.1-3 .8-5.5 1.5-9.4 2.6-31.3 10.2-41.7 14.6-41.8 17.6-82.9 45.2-115.4 77.4-21.2 21-38.5 42.9-55.4 70l-2.7 4.4 3.8-2.3c2.2-1.3 4.6-2.9 5.4-3.5 6.6-5.4 44.6-25.8 59.5-32 26.6-11 56.7-20.2 82-25.1 2.2-.4 4.2-.8 4.5-.9.3 0 2.8-.5 5.5-1 2.8-.5 5.2-.9 5.5-1 .3 0 2.8-.4 5.5-.9 2.8-.4 6.1-.9 7.5-1.1 3.6-.6 14.7-1.5 35.5-3 7.9-.6 40.9-.6 50.5 0 13.2.7 24.9 1.6 27.2 2 1.3.2 4.8.6 7.8.9 7.6.7 26.8 3.5 31 4.6 1.9.5 4.9 1.1 6.5 1.4 24.6 4.3 59.9 15.1 85.5 26.2 1.9.9 4.4 1.9 5.5 2.4 3.5 1.5 33 16 34.5 17 .8.5 5.1 3 9.5 5.6 21.1 12.3 41.4 26.9 65.4 47 .4.4-2.1 4.5-4.1 6.5-.7.8-4.3 5-7.8 9.4-3.6 4.4-6.7 8.2-7.1 8.5-.4.4-14.4 17.2-24.5 29.5-3.1 3.8-28.8 34.9-32.2 39-1 1.1-5.1 6-9.2 11-8.6 10.3-8.7 10.4-17 20.5-3.4 4.1-7.2 8.6-8.4 10-1.1 1.4-6.8 8.2-12.5 15.2l-10.3 12.6-8.6-7c-7.1-5.8-20-14.7-33.7-23.3-21.2-13.4-59.8-27.2-83.5-29.9-13.9-1.7-19.7-2-31.5-2-19.6 0-25.4.7-43.6 5.3-15.8 4-25 7.7-41.4 17.1-20.8 11.8-43.6 36.4-56.7 61-7.4 14-14.9 36.5-17.2 51.5-.4 2.2-.9 5.3-1.2 7-.9 5.6-1.3 13-1.4 27 0 15.6.4 20.5 2.6 35.2 1.4 9.4 6.5 28.5 9.4 34.8.5 1.1 2.1 4.9 3.6 8.5 15.8 36.8 50.3 68.4 90.4 82.8 13.3 4.7 30.4 8.6 44 9.8 14.9 1.4 46.6.8 57.5-1.1 17.4-3 25.6-5.3 37.6-10.7 5.9-2.6 6.9-3.4 7-5.7.6-20.3.2-69.1-.6-69.2-.5 0-28.2-.1-61.5-.2l-60.4-.2-.1-75.3c0-41.4.2-75.8.5-76.5.4-1 37.2-1.2 173.3-1.2H762v108.2c0 59.6.3 108.3.6 108.3.4 0 6.3-5.7 13.1-12.8 19.1-19.4 33.3-37.7 51.9-66.7 3.7-5.8 20.7-38.9 23.1-45 .7-1.7 2.5-6.4 4.1-10.5 11-28.1 20.2-65.1 22.7-91 .3-3.6.9-7.9 1.2-9.5.3-1.7.7-91.8.9-200.3L880 211H686.1c-106.6 0-194 .2-194.2.4z"/></svg>